<?xml version="1.0" encoding="iso-8859-1"?>
<!-- Generator: Adobe Illustrator 19.0.0, SVG Export Plug-In . SVG Version: 6.00 Build 0)  -->
<svg version="1.1" id="Layer_1" xmlns="http://www.w3.org/2000/svg" xmlns:xlink="http://www.w3.org/1999/xlink" x="0px" y="0px"
	 viewBox="0 0 512 512" style="enable-background:new 0 0 512 512;" xml:space="preserve">
<g transform="translate(1 1)">
	<g>
		<path d="M485.4,24.6H203.8h-51.2h-128C10.093,24.6-1,35.693-1,50.2V127v51.2v281.6c0,14.507,11.093,25.6,25.6,25.6h128h51.2h281.6
			c14.507,0,25.6-11.093,25.6-25.6V179.053v-51.2V50.2C511,35.693,499.907,24.6,485.4,24.6z M493.933,50.2v69.12H323.158
			c-0.283-11.627-1.305-28.427-5.012-35.84c-8.533-15.36-23.893-24.747-42.667-24.747h-0.853c-25.947,0-48.264,26.797-62.293,44.361
			V41.667H485.4C490.52,41.667,493.933,45.08,493.933,50.2z M493.933,169.667H321.938c0.749-9.89,1.078-20.062,1.329-29.867
			c0-1.534,0-2.953,0-4.267h170.667V169.667z M243.907,247.32l-14.507-2.56c-3.413,0-6.827,0.853-8.533,4.267l-6.827,11.947
			l-23.791-58.628c7.272-1.772,13.945-5.107,19.647-9.627c0.805,2.185,1.734,4.306,2.772,6.361c0.884,1.794,1.88,3.56,2.991,5.292
			c4.519,7.161,10.353,13.344,16.756,18.325L243.907,247.32z M34.84,169.667H16.067v-34.133h17.92c0,1.355,0,2.81,0,4.267
			C33.987,148.333,33.987,158.573,34.84,169.667z M51.822,175.984C50.998,162.789,50.2,149.699,50.2,139.8c0-5.12,0-9.387,0-11.947
			V127c0-0.576-0.061-1.127-0.163-1.658c-0.389-9.861,1.237-29.503,3.577-34.182c5.973-10.24,15.36-15.36,28.16-15.36
			c19.627-0.853,41.813,29.013,52.053,43.52c0.853,0.853,1.707,2.56,2.56,3.413c-3.094,4.42-5.494,9.301-7.096,14.518
			l-22.771-17.078c-3.413-2.56-9.387-1.707-11.947,1.707c-2.56,3.413-1.707,9.387,1.707,11.947l25.031,18.773L96.28,171.373
			c-3.413,2.56-4.267,8.533-1.707,11.947c1.707,2.56,4.267,3.413,6.827,3.413c1.707,0,3.413-0.853,5.12-1.707l22.553-16.915
			c0.624,2.509,1.357,5.019,2.194,7.528c-0.853,19.627-16.213,34.987-32.427,41.813c-11.093,5.12-25.6,6.827-34.987-2.56
			C56.937,207.977,53.512,192.089,51.822,175.984z M151.164,131.839c0.716-0.817,1.477-1.582,2.29-2.279
			c0.272-0.363,0.51-0.749,0.724-1.147c6.18-6.139,14.677-9.947,24.023-9.947c18.606,0,33.851,15.09,34.121,33.635
			c-0.066,5.854-1.762,11.693-5.107,16.711c-0.61,1.22-0.781,2.007-0.831,2.979c-6.162,9.003-16.511,14.941-28.182,14.941
			c-11.748,0-22.158-6.015-28.305-15.118c-0.116-0.581-0.322-1.177-0.708-1.949c-2.974-4.461-4.65-9.57-5.033-14.762
			c-0.003-0.039-0.007-0.078-0.009-0.117c-0.051-0.728-0.078-1.458-0.078-2.188C144.067,144.804,146.722,137.602,151.164,131.839z
			 M117.613,228.547c14.507-8.533,24.747-21.333,29.867-34.987c4.948,4.123,11.49,7.434,18.085,9.193l-20.645,45.42
			c-0.821,0.821-0.852,2.425-0.853,3.306l-5.12,11.201l-7.68-12.8c-1.707-2.56-5.12-4.267-7.68-4.267c-0.853,0-0.853,0-0.853,0.853
			l-14.507,2.56L117.613,228.547z M223.488,176.537c-0.002-0.047-0.003-0.094-0.005-0.14c1.43-2.701,2.632-5.539,3.564-8.495
			l22.833,17.125c1.707,0.853,3.413,1.707,5.12,1.707c2.56,0,5.12-1.707,6.827-3.413c2.56-3.413,1.707-9.387-1.707-11.947
			L235.089,152.6l25.031-18.773c3.413-2.56,4.267-8.533,1.707-11.947c-2.56-3.413-8.533-4.267-11.947-1.707l-22.771,17.078
			c-1.602-5.217-4.002-10.098-7.096-14.518c0.853-0.853,1.707-2.56,2.56-3.413C232.813,104.813,255,75.8,274.627,75.8
			c12.8,0,22.187,5.12,26.453,15.36c2.56,5.12,4.267,28.16,3.413,36.693c0,2.56,0,6.827,0,11.947
			c0,18.773-0.853,62.293-13.653,75.093c-8.533,8.533-23.893,6.827-34.987,2.56C240.729,210.731,224.788,195.733,223.488,176.537z
			 M195.267,41.667v62.686c-1.968-0.701-3.991-1.282-6.059-1.74c-0.022-0.005-0.044-0.01-0.066-0.015
			c-0.318-0.07-0.635-0.142-0.955-0.206c-3.227-0.702-6.604-0.991-9.987-0.991s-6.759,0.289-9.987,0.991
			c-0.32,0.064-0.637,0.136-0.955,0.206c-0.022,0.005-0.044,0.01-0.066,0.015c-2.068,0.458-4.091,1.039-6.059,1.74V41.667H195.267z
			 M24.6,41.667h119.467v62.989c-14.694-19.016-37.091-46.712-63.147-45.922c-18.773,0-33.28,8.533-41.813,23.893
			c-4.222,7.842-5.458,24.205-5.52,35.84h-17.52V50.2C16.067,45.08,19.48,41.667,24.6,41.667z M16.067,459.8V186.733h20.744
			c2.568,16.834,7.329,31.486,15.949,40.107c7.68,6.827,17.92,11.093,29.867,11.093c3.703,0,7.408-0.404,11.206-1.102l-8.646,19.022
			c-1.707,2.56-0.853,5.973,0.853,8.533c2.56,2.56,5.12,4.267,8.533,3.413l24.747-4.267l11.947,21.333
			c1.707,2.56,4.267,4.267,7.68,4.267c2.202,0,3.944-0.457,5.12-1.249v180.449H24.6C19.48,468.333,16.067,464.92,16.067,459.8z
			 M161.133,468.333v-215.04l16.213-36.693l17.92,44.373v207.36H161.133z M485.4,468.333H212.333v-179.2
			c2.56,0,5.973-1.707,7.68-4.267l12.8-21.333l23.893,5.12c3.413,0,6.827-0.853,8.533-3.413s2.56-5.973,0.853-8.533l-10.139-21.601
			c5.945,1.882,12.117,2.827,17.819,2.827c11.947,0,22.187-3.413,30.72-11.093c8.621-8.621,13.14-23.272,15.611-40.107h173.829
			V459.8C493.933,464.92,490.52,468.333,485.4,468.333z"/>
	</g>
</g>
<g>
</g>
<g>
</g>
<g>
</g>
<g>
</g>
<g>
</g>
<g>
</g>
<g>
</g>
<g>
</g>
<g>
</g>
<g>
</g>
<g>
</g>
<g>
</g>
<g>
</g>
<g>
</g>
<g>
</g>
</svg>
